<svg xmlns="http://www.w3.org/2000/svg" viewBox="0 0 512 512" width="512" height="512">
  <defs>
    <linearGradient id="bg" x1="0%" y1="0%" x2="100%" y2="100%">
      <stop offset="0%" style="stop-color:#1a73e8;stop-opacity:1" />
      <stop offset="100%" style="stop-color:#0d47a1;stop-opacity:1" />
    </linearGradient>
    <linearGradient id="sun" x1="0%" y1="0%" x2="100%" y2="100%">
      <stop offset="0%" style="stop-color:#ffd54f;stop-opacity:1" />
      <stop offset="100%" style="stop-color:#ff8f00;stop-opacity:1" />
    </linearGradient>
  </defs>
  <rect width="512" height="512" rx="80" fill="url(#bg)"/>
  <circle cx="210" cy="210" r="85" fill="url(#sun)"/>
  <line x1="210" y1="80" x2="210" y2="50" stroke="#ffd54f" stroke-width="10" stroke-linecap="round"/>
  <line x1="210" y1="340" x2="210" y2="370" stroke="#ffd54f" stroke-width="10" stroke-linecap="round"/>
  <line x1="80" y1="210" x2="50" y2="210" stroke="#ffd54f" stroke-width="10" stroke-linecap="round"/>
  <line x1="340" y1="210" x2="370" y2="210" stroke="#ffd54f" stroke-width="10" stroke-linecap="round"/>
  <line x1="118" y1="118" x2="96" y2="96" stroke="#ffd54f" stroke-width="10" stroke-linecap="round"/>
  <line x1="302" y1="118" x2="324" y2="96" stroke="#ffd54f" stroke-width="10" stroke-linecap="round"/>
  <line x1="118" y1="302" x2="96" y2="324" stroke="#ffd54f" stroke-width="10" stroke-linecap="round"/>
  <line x1="302" y1="302" x2="324" y2="324" stroke="#ffd54f" stroke-width="10" stroke-linecap="round"/>
  <path d="M290 240 Q290 195 335 195 Q338 155 390 155 Q442 155 445 195 Q490 195 490 240 Q490 285 445 285 L335 285 Q290 285 290 240Z" fill="white" opacity="0.95"/>
  <rect x="315" y="305" width="10" height="55" rx="5" fill="white" opacity="0.7"/>
  <rect x="355" y="305" width="10" height="75" rx="5" fill="white" opacity="0.7"/>
  <rect x="395" y="305" width="10" height="45" rx="5" fill="white" opacity="0.7"/>
  <rect x="435" y="305" width="10" height="65" rx="5" fill="white" opacity="0.7"/>
</svg>
